<?xml version="1.0" standalone="no"?>
<!DOCTYPE svg PUBLIC "-//W3C//DTD SVG 20010904//EN"
 "http://www.w3.org/TR/2001/REC-SVG-20010904/DTD/svg10.dtd">
<svg version="1.0" xmlns="http://www.w3.org/2000/svg"
 width="300.000000pt" height="300.000000pt" viewBox="0 0 300.000000 300.000000"
 preserveAspectRatio="xMidYMid meet">
<metadata>
Created by potrace 1.11, written by Peter Selinger 2001-2013
</metadata>
<g transform="translate(0.000000,300.000000) scale(0.100000,-0.100000)"
fill="#000000" stroke="none">
<path d="M1335 2498 c-73 -26 -159 -105 -210 -192 -56 -96 -71 -234 -34 -315
l20 -45 -34 -35 c-125 -131 -294 -413 -352 -585 -53 -158 -22 -352 74 -458 25
-29 71 -68 103 -88 31 -20 53 -41 50 -46 -4 -5 -29 -15 -55 -22 -26 -7 -59
-19 -71 -28 -38 -24 -75 -86 -87 -145 -15 -72 0 -126 49 -176 l37 -38 0 -100
c-1 -84 -5 -110 -27 -163 l-26 -62 664 0 664 0 0 53 1 52 25 -52 26 -53 119 0
c65 0 119 3 119 6 0 3 -8 18 -18 32 -45 64 -112 244 -112 299 0 14 15 42 34
64 120 141 20 367 -177 404 -37 7 -37 8 -22 29 47 64 66 101 86 161 18 57 20
83 17 193 -3 112 -8 138 -37 222 -63 182 -168 348 -313 493 -79 78 -210 177
-237 177 -19 0 -20 16 -6 65 66 216 -89 417 -270 353z m41 -769 c-3 -17 -18
-68 -32 -115 l-26 -84 -45 0 c-38 0 -44 3 -39 17 4 9 19 56 33 104 25 85 27
88 62 97 54 15 54 14 47 -19z m-136 9 c0 -2 -16 -52 -34 -113 -29 -94 -37
-110 -56 -113 -18 -3 -21 0 -16 14 4 10 19 58 34 108 14 50 31 94 37 98 9 7
35 11 35 6z m130 -618 c0 -74 -3 -88 -14 -84 -29 11 -46 53 -46 114 l0 60 30
0 30 0 0 -90z"/>
</g>
</svg>
